<svg width="32" height="32" viewBox="0 0 32 32" fill="none" xmlns="http://www.w3.org/2000/svg">
<path d="M22.6666 9.3335H17.3333V12.0002H22.6666C24.8666 12.0002 26.6666 13.8002 26.6666 16.0002C26.6666 18.2002 24.8666 20.0002 22.6666 20.0002H17.3333V22.6668H22.6666C26.3466 22.6668 29.3333 19.6802 29.3333 16.0002C29.3333 12.3202 26.3466 9.3335 22.6666 9.3335ZM14.6666 20.0002H9.33329C7.13329 20.0002 5.33329 18.2002 5.33329 16.0002C5.33329 13.8002 7.13329 12.0002 9.33329 12.0002H14.6666V9.3335H9.33329C5.65329 9.3335 2.66663 12.3202 2.66663 16.0002C2.66663 19.6802 5.65329 22.6668 9.33329 22.6668H14.6666V20.0002ZM10.6666 14.6668H21.3333V17.3335H10.6666V14.6668Z" fill="#A77EE9"/>
</svg>
