<svg width="56" height="56" viewBox="0 0 56 56" fill="none" xmlns="http://www.w3.org/2000/svg">
<path d="M28 4.6665C15.12 4.6665 4.66669 15.1198 4.66669 27.9998C4.66669 40.8798 15.12 51.3332 28 51.3332C40.88 51.3332 51.3334 40.8798 51.3334 27.9998C51.3334 15.1198 40.88 4.6665 28 4.6665ZM28 11.6665C31.8734 11.6665 35 14.7932 35 18.6665C35 22.5398 31.8734 25.6665 28 25.6665C24.1267 25.6665 21 22.5398 21 18.6665C21 14.7932 24.1267 11.6665 28 11.6665ZM28 44.7998C22.1667 44.7998 17.01 41.8132 14 37.2865C14.07 32.6432 23.3334 30.0998 28 30.0998C32.6434 30.0998 41.93 32.6432 42 37.2865C38.99 41.8132 33.8334 44.7998 28 44.7998Z" fill="#BDBDBD"/>
</svg>
