<svg width="31" height="28" viewBox="0 0 31 28" fill="none" xmlns="http://www.w3.org/2000/svg">
<path fill-rule="evenodd" clip-rule="evenodd" d="M11.3804 10.2998L10.3617 13.4706H12.3835L11.4026 10.2998H11.3804Z" fill="#FAE100"/>
<path fill-rule="evenodd" clip-rule="evenodd" d="M26.8066 16.3254C26.6328 16.4594 26.422 16.5269 26.178 16.5269C26.0023 16.5269 25.8591 16.4964 25.7481 16.4344C25.6363 16.3623 25.5216 16.2431 25.4079 16.0582L23.4185 12.8541L22.4701 13.8432L22.4793 15.6311C22.4765 15.9001 22.3989 16.1192 22.2426 16.2819C22.0855 16.4465 21.8729 16.5269 21.6094 16.5269C21.3903 16.5269 21.2063 16.4659 21.0547 16.3512C20.9031 16.2283 20.807 16.0656 20.7654 15.8613C20.7515 15.7873 20.7469 15.7115 20.7497 15.6302L20.7478 9.24506C20.7497 8.9779 20.8255 8.75973 20.9826 8.59425C21.1379 8.43155 21.3496 8.34928 21.6149 8.34928C21.8331 8.34928 22.0171 8.40844 22.1668 8.52862C22.3212 8.64972 22.4164 8.81242 22.4571 9.01672C22.4719 9.09253 22.4793 9.16926 22.4747 9.24506L22.4793 11.8612L25.1925 8.74216C25.3146 8.60905 25.4227 8.51198 25.5207 8.44634C25.6215 8.38163 25.7389 8.34928 25.8812 8.34928C26.0717 8.34928 26.2427 8.40197 26.398 8.51013C26.5533 8.61182 26.6476 8.75233 26.6846 8.93168L26.6975 8.99731C26.6957 9.0232 26.6975 9.05093 26.7021 9.07127C26.7003 9.19514 26.6744 9.30515 26.6217 9.39944C26.569 9.49651 26.5015 9.59173 26.4174 9.68787L24.6425 11.6255L26.741 14.9507L26.8048 15.0515C26.9471 15.277 27.0303 15.4425 27.0534 15.5525C27.0553 15.559 27.0581 15.5803 27.0655 15.6071V15.6625C27.0655 15.9713 26.9804 16.1913 26.8066 16.3254V16.3254ZM20.3189 16.1895C20.1497 16.3189 19.9352 16.3873 19.6764 16.3873H16.0738C15.8057 16.3873 15.5894 16.3337 15.424 16.2209C15.2557 16.1146 15.1485 15.9362 15.0967 15.6884C15.0782 15.584 15.0643 15.4666 15.0588 15.3353L15.0616 9.24506C15.0616 8.9779 15.1411 8.75973 15.2982 8.59425C15.4526 8.43155 15.6643 8.34928 15.9315 8.34928C16.1487 8.34928 16.3345 8.40844 16.4843 8.52862C16.6322 8.64972 16.7311 8.81242 16.7736 9.01672C16.7884 9.09253 16.7931 9.16926 16.7884 9.24506L16.7866 14.874H19.6718C19.9029 14.874 20.0989 14.923 20.2551 15.0265C20.4122 15.1319 20.5139 15.277 20.5491 15.4666C20.5611 15.5146 20.5694 15.5738 20.574 15.6311C20.574 15.8696 20.489 16.0582 20.3189 16.1895V16.1895ZM14.5494 16.2986C14.3913 16.4548 14.2009 16.5269 13.9763 16.5269C13.5769 16.5269 13.3181 16.3623 13.1997 16.0342L12.7542 14.7187H9.97344L9.52509 16.0342C9.41693 16.3623 9.15901 16.5269 8.75133 16.5269C8.5498 16.5269 8.37785 16.477 8.24196 16.3697C8.10514 16.2662 8.01547 16.1146 7.97664 15.9232C7.96463 15.8696 7.96001 15.8077 7.96001 15.7402C7.95723 15.6524 7.97017 15.5461 8.00808 15.4231C8.03951 15.2992 8.08018 15.1735 8.12456 15.0515L10.358 8.8984C10.4273 8.70056 10.5337 8.56005 10.6723 8.47593C10.8091 8.39273 10.9866 8.34928 11.2011 8.34928H11.6152C11.8399 8.34928 12.0276 8.3955 12.1801 8.48609C12.3317 8.57484 12.4528 8.75141 12.5369 9.00748L14.6225 15.0515C14.6899 15.2382 14.7352 15.3991 14.763 15.5322C14.7796 15.6219 14.7907 15.6912 14.7935 15.7402C14.7898 15.9621 14.7094 16.1442 14.5494 16.2986V16.2986ZM7.41643 15.6311C7.41551 15.9001 7.33693 16.1192 7.17978 16.2819C7.02539 16.4465 6.81092 16.5269 6.54746 16.5269C6.32929 16.5269 6.14532 16.4659 5.99464 16.3512C5.84211 16.2283 5.74689 16.0656 5.70344 15.8613C5.68865 15.7873 5.68495 15.7115 5.68865 15.6302L5.69235 10.0068H4.05978C3.83514 10.0068 3.64101 9.95134 3.48016 9.8515C3.31746 9.75166 3.21854 9.60375 3.18156 9.41423C3.17232 9.36339 3.16307 9.30515 3.1566 9.24506C3.1566 9.00748 3.24258 8.81982 3.41267 8.6904C3.58185 8.56005 3.79632 8.48979 4.05516 8.48979H9.04715C9.27179 8.48979 9.465 8.54341 9.62493 8.64417C9.78855 8.74586 9.88839 8.89008 9.92814 9.08236C9.93554 9.13413 9.94108 9.18867 9.93831 9.24506C9.93831 9.49189 9.85511 9.674 9.68871 9.8099C9.52324 9.93932 9.31061 10.0068 9.05085 10.0068H7.41736V15.6311H7.41643ZM15.4286 0.0357666C7.14465 0.0357666 0.428574 5.33837 0.428574 11.8834C0.428574 16.0924 3.21115 19.7782 7.38962 21.8877L5.97523 27.1635C5.92161 27.3235 5.96506 27.4982 6.08246 27.6147C6.16381 27.696 6.27105 27.7404 6.38845 27.7404C6.47905 27.7404 6.56779 27.7016 6.64915 27.6396L12.7274 23.5351C13.6093 23.6617 14.5106 23.732 15.4286 23.732C23.7116 23.732 30.4286 18.4285 30.4286 11.8834C30.4286 5.33837 23.7107 0.0357666 15.4286 0.0357666Z" fill="#FAE100"/>
</svg>
