<svg width="52" height="20" viewBox="0 0 52 20" fill="none" xmlns="http://www.w3.org/2000/svg">
<path d="M11.4435 6.04723C11.3725 5.33108 11.0677 4.77474 10.5291 4.3782C9.99053 3.98165 9.25959 3.78338 8.33629 3.78338C7.70893 3.78338 7.17921 3.87216 6.74716 4.04972C6.3151 4.22135 5.98366 4.46106 5.75284 4.76882C5.52794 5.07659 5.41548 5.42578 5.41548 5.81641C5.40365 6.14193 5.47171 6.42602 5.61967 6.66868C5.77356 6.91134 5.98366 7.12145 6.25 7.29901C6.51634 7.47064 6.8241 7.62157 7.1733 7.75178C7.52249 7.87607 7.89536 7.9826 8.2919 8.07138L9.92543 8.462C10.7185 8.63956 11.4465 8.8763 12.1094 9.17223C12.7723 9.46816 13.3464 9.83215 13.8317 10.2642C14.317 10.6963 14.6928 11.2053 14.9592 11.7912C15.2314 12.3771 15.3705 13.0489 15.3764 13.8065C15.3705 14.9192 15.0864 15.8839 14.5241 16.7006C13.9678 17.5115 13.1629 18.1418 12.1094 18.5916C11.0618 19.0355 9.79818 19.2575 8.31854 19.2575C6.85073 19.2575 5.57232 19.0326 4.48331 18.5827C3.40021 18.1329 2.55386 17.4671 1.94425 16.5852C1.34055 15.6974 1.02391 14.5996 0.994318 13.2915H4.71413C4.75556 13.9012 4.93016 14.4102 5.23793 14.8185C5.55161 15.221 5.96887 15.5258 6.4897 15.733C7.01645 15.9342 7.61127 16.0348 8.27415 16.0348C8.92519 16.0348 9.49041 15.9401 9.96982 15.7507C10.4551 15.5613 10.831 15.2979 11.0973 14.9606C11.3636 14.6232 11.4968 14.2356 11.4968 13.7976C11.4968 13.3892 11.3755 13.0459 11.1328 12.7678C10.8961 12.4896 10.5469 12.2528 10.0852 12.0575C9.6295 11.8622 9.07019 11.6847 8.40732 11.5249L6.42756 11.0277C4.89465 10.6548 3.6843 10.0719 2.79652 9.27876C1.90874 8.48568 1.4678 7.41738 1.47372 6.07386C1.4678 4.97301 1.76077 4.01124 2.35263 3.18857C2.9504 2.36589 3.77012 1.72372 4.81179 1.26207C5.85346 0.800426 7.03717 0.569602 8.36293 0.569602C9.71236 0.569602 10.8902 0.800426 11.8963 1.26207C12.9084 1.72372 13.6955 2.36589 14.2578 3.18857C14.8201 4.01124 15.1101 4.96413 15.1278 6.04723H11.4435ZM17.9621 0.818181H22.7029L27.71 13.0341H27.923L32.9301 0.818181H37.6709V19H33.9422V7.16584H33.7913L29.086 18.9112H26.547L21.8417 7.12145H21.6908V19H17.9621V0.818181ZM48.1179 0.818181H51.9176V13.4957C51.9176 14.6676 51.6542 15.6856 51.1275 16.5497C50.6067 17.4138 49.8816 18.0797 48.9524 18.5472C48.0232 19.0148 46.9431 19.2486 45.712 19.2486C44.6171 19.2486 43.6228 19.0562 42.729 18.6715C41.8413 18.2809 41.137 17.689 40.6161 16.896C40.0953 16.0969 39.8378 15.0937 39.8438 13.8864H43.6701C43.6819 14.3658 43.7796 14.7771 43.9631 15.1204C44.1525 15.4577 44.4099 15.7182 44.7354 15.9016C45.0669 16.0792 45.4575 16.168 45.9073 16.168C46.3808 16.168 46.7803 16.0674 47.1058 15.8661C47.4373 15.659 47.6888 15.3571 47.8604 14.9606C48.0321 14.564 48.1179 14.0758 48.1179 13.4957V0.818181Z" fill="black"/>
</svg>
