<svg xmlns="http://www.w3.org/2000/svg" width="58" height="58" viewBox="0 0 58 58">
    <g fill="none" fill-rule="evenodd">
        <g stroke="#ADADAD" stroke-width="2">
            <g>
                <path d="M35.571 30.48c-3.905 3.73-10.237 3.73-14.142 0-3.905-3.732-3.905-9.783 0-13.514 3.905-3.732 10.237-3.732 14.142 0 3.905 3.731 3.905 9.782 0 13.513zm4.39-19.482c-6.526-5.332-16.403-5.33-22.927.004-7.067 5.778-7.926 15.484-2.58 22.22l12.064 15.822c.972 1.275 2.991 1.275 3.963 0l12.066-15.821c5.346-6.737 4.484-16.447-2.586-22.225z" transform="translate(-216 -1047) translate(216 1047)"/>
            </g>
        </g>
    </g>
</svg>
